<svg xmlns="http://www.w3.org/2000/svg" xmlns:xlink="http://www.w3.org/1999/xlink" width="1366" zoomAndPan="magnify" viewBox="0 0 1024.5 576" height="768" preserveAspectRatio="xMidYMid meet" version="1.0"><defs><filter x="0%" y="0%" width="100%" height="100%" id="9a0ec2421a"><feColorMatrix values="0 0 0 0 1 0 0 0 0 1 0 0 0 0 1 0 0 0 1 0" color-interpolation-filters="sRGB"/></filter><mask id="ced63c62ea"><g filter="url(#9a0ec2421a)"><rect x="-102.45" width="1229.4" fill="#000000" y="-57.6" height="691.2" fill-opacity="0.0667"/></g></mask><clipPath id="52fd162005"><path d="M 0 1 L 1024 1 L 1024 316.527344 L 0 316.527344 Z M 0 1 " clip-rule="nonzero"/></clipPath><clipPath id="0913cee3f7"><path d="M 725.777344 201.070312 C 675.683594 201.070312 576.332031 145.242188 521.378906 114.226562 C 509.484375 107.519531 499.265625 101.820312 491.726562 97.796875 C 447.832031 74.660156 419.683594 84.550781 383.832031 96.957031 C 351.328125 108.191406 314.46875 120.929688 256 112.382812 C 212.941406 106.179688 198.03125 80.863281 183.789062 56.386719 C 173.402344 39.117188 163.851562 22.6875 144.585938 13.132812 C 93.652344 -11.847656 66.847656 12.460938 40.878906 35.933594 C 27.980469 47.667969 15.75 58.734375 0.671875 64.097656 L 0.167969 62.921875 C 14.910156 57.558594 27.140625 46.492188 39.875 34.925781 C 66.179688 11.285156 93.488281 -13.359375 145.089844 11.957031 C 164.691406 21.515625 174.40625 38.277344 184.796875 55.714844 C 199.035156 79.855469 213.78125 104.835938 256.167969 111.039062 C 314.304688 119.589844 350.992188 106.847656 383.328125 95.617188 C 418.007812 83.546875 447.832031 73.316406 492.230469 96.621094 C 499.769531 100.476562 509.988281 106.34375 521.882812 113.050781 C 580.691406 146.078125 689.925781 207.441406 735.160156 198.890625 C 744.878906 197.046875 754.929688 195.367188 765.484375 193.523438 C 813.402344 185.308594 867.851562 176.089844 905.210938 150.101562 C 909.066406 147.421875 912.75 144.738281 916.605469 142.054688 C 949.105469 119.253906 982.449219 95.617188 1021.148438 95.617188 C 1021.652344 95.617188 1022.15625 95.617188 1022.824219 95.617188 L 1022.824219 96.957031 C 1022.320312 96.957031 1021.820312 96.957031 1021.316406 96.957031 C 982.949219 96.957031 949.777344 120.429688 917.609375 143.230469 C 913.757812 145.910156 910.070312 148.59375 906.21875 151.277344 C 868.519531 177.429688 814.070312 186.652344 765.988281 195.035156 C 755.433594 196.878906 745.378906 198.554688 735.664062 200.398438 C 732.480469 200.734375 729.296875 201.070312 725.777344 201.070312 Z M 706.847656 199.058594 C 712.375 198.890625 718.070312 198.722656 723.933594 198.554688 C 783.410156 196.878906 850.761719 194.867188 903.703125 161.335938 C 912.25 155.96875 920.960938 149.765625 929.335938 143.898438 C 958.320312 123.613281 988.3125 102.488281 1022.320312 102.488281 C 1022.488281 102.488281 1022.65625 102.488281 1022.824219 102.488281 L 1022.824219 101.148438 C 1022.65625 101.148438 1022.488281 101.148438 1022.320312 101.148438 C 987.808594 101.148438 957.820312 122.273438 928.667969 142.726562 C 920.289062 148.59375 911.578125 154.628906 903.035156 160.160156 C 850.425781 193.523438 783.078125 195.535156 723.933594 197.214844 C 718.070312 197.378906 712.375 197.546875 706.847656 197.714844 C 705.839844 197.714844 705.003906 197.714844 704 197.714844 C 645.527344 197.714844 523.558594 139.039062 476.984375 116.738281 L 476.480469 116.40625 C 433.421875 95.617188 402.429688 102.488281 366.742188 110.535156 C 334.742188 117.746094 298.722656 125.792969 245.277344 116.738281 C 206.40625 110.203125 191.832031 86.5625 177.589844 63.59375 C 167.203125 46.660156 157.320312 30.734375 138.386719 21.679688 C 89.128906 -1.621094 62.828125 23.691406 37.359375 48.339844 C 25.296875 60.074219 13.738281 71.140625 0.167969 76.503906 L 0.671875 77.675781 C 14.574219 72.144531 25.96875 61.078125 38.199219 49.34375 C 63.328125 25.035156 89.296875 0.0546875 137.882812 23.191406 C 156.648438 31.90625 166.367188 47.835938 176.753906 64.601562 C 190.996094 87.734375 205.738281 111.710938 245.277344 118.25 C 298.890625 127.300781 335.246094 119.085938 367.246094 112.046875 C 402.761719 104 433.421875 97.125 476.144531 117.746094 L 476.648438 118.082031 C 523.222656 140.378906 645.359375 199.226562 704.164062 199.226562 C 705.003906 199.226562 706.007812 199.226562 706.847656 199.058594 Z M 901.527344 171.5625 C 913.253906 164.6875 924.648438 156.304688 935.871094 148.425781 C 963.179688 128.8125 991.328125 108.523438 1023.160156 108.359375 L 1023.160156 107.015625 C 990.824219 107.183594 962.511719 127.46875 935.035156 147.253906 C 923.976562 155.300781 912.417969 163.515625 900.855469 170.386719 C 830.992188 211.464844 751.078125 203.75 680.542969 196.878906 L 678.363281 196.710938 C 617.378906 191.011719 506.972656 156.640625 460.5625 136.355469 C 418.847656 118.082031 387.015625 121.433594 350.324219 125.289062 C 318.828125 128.644531 283.140625 132.332031 234.386719 122.777344 C 199.035156 115.734375 184.628906 93.4375 170.554688 71.808594 C 160 55.546875 150.113281 40.125 131.851562 31.742188 C 84.441406 9.945312 57.96875 37.273438 34.511719 61.582031 C 23.289062 73.484375 12.566406 84.550781 0.167969 89.914062 L 0.671875 91.089844 C 13.234375 85.722656 24.125 74.492188 35.519531 62.589844 C 59.8125 37.441406 84.941406 11.453125 131.519531 32.914062 C 149.277344 41.128906 159.160156 56.386719 169.71875 72.480469 C 183.789062 94.273438 198.535156 116.90625 234.386719 123.949219 C 283.308594 133.503906 319.160156 129.816406 350.660156 126.464844 C 387.183594 122.609375 418.847656 119.253906 460.230469 137.359375 C 506.636719 157.648438 617.214844 192.015625 678.363281 197.714844 L 680.542969 197.882812 C 708.019531 200.566406 737.003906 203.417969 766.15625 203.417969 C 812.0625 203.582031 858.636719 196.710938 901.527344 171.5625 Z M 899.347656 181.789062 C 913.253906 174.078125 926.824219 163.851562 939.894531 154.125 C 967.203125 133.671875 993.003906 114.394531 1023.496094 113.890625 L 1023.496094 112.546875 C 1009.589844 112.714844 995.347656 116.90625 979.765625 125.457031 C 965.863281 133.003906 952.289062 143.230469 939.222656 153.121094 C 926.15625 162.84375 912.75 172.902344 898.847656 180.617188 C 818.257812 225.210938 735.328125 213.140625 650.21875 195.703125 C 627.769531 191.011719 601.632812 187.152344 574.15625 182.960938 C 525.738281 175.585938 475.644531 168.042969 445.152344 156.136719 C 405.277344 140.546875 372.773438 140.042969 335.078125 139.539062 C 303.914062 139.207031 268.398438 138.703125 224 128.476562 C 192.167969 121.097656 177.925781 100.140625 164.019531 79.855469 C 153.128906 64.433594 143.078125 49.679688 125.652344 41.800781 C 80.25 21.679688 54.617188 50.183594 32 75.328125 C 21.445312 87.066406 11.394531 98.128906 0.335938 103.496094 L 0.835938 104.667969 C 12.230469 99.304688 22.28125 88.070312 33.003906 76.335938 C 55.457031 51.523438 80.753906 23.359375 125.320312 43.140625 C 142.40625 50.851562 152.460938 65.4375 163.015625 81.03125 C 176.921875 101.484375 191.496094 122.777344 223.664062 130.152344 C 268.230469 140.378906 303.746094 140.882812 335.078125 141.21875 C 372.605469 141.71875 404.941406 142.054688 444.648438 157.648438 C 475.140625 169.550781 525.402344 177.09375 573.988281 184.472656 C 601.464844 188.664062 627.601562 192.519531 650.050781 197.214844 C 691.601562 205.761719 732.648438 213.140625 773.191406 213.140625 C 815.746094 212.804688 857.796875 204.757812 899.347656 181.789062 Z M 897.003906 192.015625 C 912.917969 183.632812 927.996094 171.898438 942.574219 160.496094 C 969.042969 139.875 994.007812 120.261719 1023.496094 119.757812 L 1023.496094 118.417969 C 993.503906 119.085938 968.375 138.703125 941.734375 159.492188 C 927.160156 170.890625 912.25 182.628906 896.332031 190.84375 C 799.496094 241.808594 703.664062 219.511719 621.570312 194.699219 C 587.222656 184.304688 550.199219 184.304688 514.34375 184.136719 C 482.34375 184.136719 452.1875 183.96875 429.066406 176.089844 C 391.875 163.179688 357.695312 158.820312 321.507812 154.125 C 288.335938 149.933594 253.988281 145.578125 212.773438 134.34375 C 184.628906 126.800781 170.722656 107.183594 157.152344 88.40625 C 146.261719 73.152344 135.875 58.898438 119.121094 51.523438 C 75.726562 32.914062 50.933594 62.757812 28.984375 88.910156 C 19.265625 100.644531 10.050781 111.542969 0.167969 116.738281 L 0.835938 117.914062 C 10.890625 112.714844 20.105469 101.484375 29.988281 89.75 C 51.601562 63.929688 76.230469 34.589844 118.617188 52.863281 C 135.203125 59.90625 145.421875 74.15625 156.144531 89.246094 C 169.882812 108.359375 183.957031 127.972656 212.4375 135.683594 C 253.820312 146.917969 288.167969 151.277344 321.339844 155.46875 C 357.359375 159.996094 391.539062 164.351562 428.730469 177.261719 C 452.019531 185.308594 482.34375 185.308594 514.34375 185.476562 C 550.03125 185.476562 587.054688 185.644531 621.066406 195.871094 C 666.972656 209.785156 717.234375 222.863281 769.503906 222.863281 C 811.054688 222.863281 853.945312 214.648438 897.003906 192.015625 Z M 894.65625 202.242188 C 912.417969 193.355469 928.667969 180.113281 944.417969 167.203125 C 970.21875 146.078125 994.679688 126.296875 1023.496094 125.289062 L 1023.496094 123.949219 C 994.175781 124.953125 969.714844 144.90625 943.578125 166.03125 C 927.828125 178.769531 911.578125 192.015625 893.988281 200.902344 C 844.0625 226.050781 792.792969 235.941406 737.171875 231.246094 C 684.394531 226.71875 634.636719 209.621094 593.085938 193.523438 C 554.554688 178.605469 517.527344 185.980469 484.855469 192.351562 C 459.222656 197.378906 434.929688 202.242188 413.316406 195.703125 C 383.496094 186.820312 354.175781 179.777344 323.183594 172.402344 C 284.984375 163.347656 245.613281 153.957031 201.882812 140.042969 C 177.421875 132.332031 163.683594 114.226562 150.617188 96.789062 C 139.390625 82.035156 128.835938 68.121094 112.585938 61.414062 C 71.203125 44.480469 46.074219 76.839844 25.96875 102.824219 C 17.089844 114.226562 8.710938 125.121094 0.167969 130.152344 L 0.835938 131.15625 C 9.550781 125.960938 17.925781 115.0625 26.972656 103.496094 C 47.917969 76.671875 71.539062 45.992188 112.25 62.757812 C 128.167969 69.292969 138.722656 83.210938 149.78125 97.796875 C 163.183594 115.398438 176.921875 133.671875 201.714844 141.550781 C 245.445312 155.46875 284.816406 164.855469 323.015625 173.910156 C 354.007812 181.285156 383.328125 188.160156 413.152344 197.214844 C 434.929688 203.75 459.390625 198.890625 485.359375 193.859375 C 517.863281 187.488281 554.722656 180.113281 592.917969 195.035156 C 634.636719 211.128906 684.394531 228.394531 737.339844 232.921875 C 746.386719 233.761719 755.265625 234.097656 763.976562 234.097656 C 809.546875 233.761719 852.605469 223.367188 894.65625 202.242188 Z M 892.480469 212.46875 C 911.746094 203.25 929.171875 188.328125 945.925781 174.078125 C 971.390625 152.449219 995.347656 132.164062 1023.828125 130.992188 L 1023.828125 129.816406 C 995.011719 130.992188 970.71875 151.445312 945.253906 173.238281 C 928.5 187.488281 911.074219 202.242188 891.976562 211.464844 C 768.667969 270.980469 661.945312 237.617188 564.941406 192.6875 C 523.726562 173.574219 490.554688 188.664062 461.402344 201.90625 C 439.621094 211.796875 419.183594 221.1875 397.90625 215.824219 C 334.742188 199.894531 261.191406 172.566406 191.496094 146.078125 C 170.722656 138.199219 157.488281 121.769531 144.753906 105.84375 C 133.195312 91.257812 122.136719 77.675781 106.386719 71.472656 C 66.679688 56.050781 42.554688 89.914062 23.121094 117.242188 C 14.910156 128.8125 7.707031 138.871094 0.503906 143.730469 L 1.171875 144.738281 C 8.542969 139.707031 15.75 129.648438 24.125 117.914062 C 43.390625 91.089844 67.183594 57.558594 106.050781 72.648438 C 121.632812 78.683594 132.355469 92.261719 143.914062 106.679688 C 156.816406 122.777344 170.050781 139.375 191.160156 147.421875 C 261.027344 173.910156 334.40625 201.238281 397.738281 217.164062 C 419.351562 222.695312 440.125 213.140625 462.070312 203.25 C 491.054688 190.003906 523.894531 175.082031 564.605469 194.027344 C 624.417969 221.691406 687.746094 244.992188 756.605469 244.992188 C 799.328125 244.660156 844.730469 235.605469 892.480469 212.46875 Z M 889.964844 222.695312 C 910.742188 213.140625 929.003906 196.878906 946.929688 181.117188 C 972.058594 158.988281 995.851562 138.03125 1023.828125 136.691406 L 1023.828125 135.515625 C 995.347656 136.859375 971.390625 157.984375 946.089844 180.28125 C 928.332031 195.871094 910.070312 212.132812 889.464844 221.691406 C 750.574219 286.234375 637.484375 245.496094 536.125 191.679688 C 492.730469 168.542969 464.25 191.34375 439.121094 211.464844 C 420.691406 226.214844 403.265625 240.132812 381.820312 235.773438 C 335.582031 226.382812 275.601562 197.546875 222.660156 172.066406 C 207.75 164.855469 193.675781 158.148438 180.4375 152.113281 C 163.519531 144.402344 151.121094 129.648438 139.058594 115.398438 C 126.828125 100.644531 115.097656 87.066406 99.6875 81.367188 C 61.652344 67.617188 37.359375 104.835938 19.601562 131.996094 C 12.398438 143.0625 6.199219 152.617188 0.335938 157.144531 L 1.171875 158.148438 C 7.203125 153.457031 13.570312 143.898438 20.773438 132.667969 C 39.371094 104.332031 62.324219 69.125 99.351562 82.539062 C 114.597656 88.070312 125.988281 101.652344 138.21875 116.070312 C 150.28125 130.320312 162.847656 145.242188 180.105469 153.121094 C 193.339844 159.15625 207.414062 166.03125 222.324219 173.070312 C 275.433594 198.554688 335.582031 227.390625 381.820312 236.777344 C 403.769531 241.304688 421.527344 227.054688 440.125 212.132812 C 466.09375 191.34375 493.066406 169.886719 535.789062 192.519531 C 600.292969 226.71875 669.652344 255.722656 747.222656 255.722656 C 791.789062 255.890625 839.035156 246.335938 889.964844 222.695312 Z M 887.789062 232.921875 C 909.902344 223.03125 929.171875 205.429688 947.765625 188.328125 C 972.730469 165.527344 996.1875 144.066406 1023.996094 142.558594 L 1023.996094 141.386719 C 995.683594 142.894531 972.058594 164.6875 946.929688 187.488281 C 928.332031 204.421875 909.234375 222.027344 887.285156 231.917969 C 818.09375 262.933594 751.914062 272.65625 684.5625 261.589844 C 630.113281 252.539062 575.496094 230.742188 507.976562 190.675781 C 462.574219 163.851562 439.957031 192.6875 418.175781 220.515625 C 402.761719 240.300781 388.1875 258.910156 366.238281 255.554688 C 322.34375 248.851562 257.339844 209.953125 205.234375 178.769531 C 192.335938 171.058594 180.273438 163.851562 169.71875 157.816406 C 156.648438 150.4375 145.421875 137.695312 134.535156 125.457031 C 121.128906 110.535156 108.734375 96.453125 93.152344 91.257812 C 56.628906 79.019531 33.171875 118.585938 15.917969 147.421875 C 9.886719 157.648438 4.691406 166.363281 0.167969 170.554688 L 1.003906 171.394531 C 5.695312 167.035156 10.890625 158.148438 17.089844 147.921875 C 34.011719 119.421875 57.296875 80.527344 92.816406 92.261719 C 107.894531 97.292969 120.460938 111.375 133.527344 126.128906 C 144.417969 138.367188 155.8125 151.109375 169.046875 158.652344 C 179.601562 164.6875 191.664062 171.898438 204.566406 179.609375 C 256.835938 210.960938 321.84375 249.855469 366.074219 256.5625 C 388.523438 259.914062 403.433594 240.96875 419.183594 221.019531 C 440.628906 193.523438 462.910156 165.191406 507.308594 191.511719 C 575.160156 231.582031 629.777344 253.542969 684.394531 262.597656 C 702.324219 265.613281 720.25 267.125 738.175781 267.125 C 787.601562 267.125 837.023438 255.722656 887.789062 232.921875 Z M 885.609375 243.148438 C 909.066406 232.921875 929.171875 213.976562 948.605469 195.535156 C 973.234375 172.066406 996.6875 149.933594 1024.332031 148.257812 L 1024.332031 147.085938 C 996.1875 148.929688 972.730469 171.226562 947.765625 194.699219 C 928.5 212.972656 908.394531 232.085938 885.109375 242.144531 C 809.546875 275.003906 738.007812 284.726562 666.804688 271.484375 C 608.835938 260.753906 549.359375 234.765625 479.496094 189.667969 C 463.746094 179.441406 450.511719 176.089844 438.785156 179.273438 C 419.515625 184.472656 408.125 207.105469 397.234375 229.066406 C 384.667969 254.046875 372.941406 277.6875 350.492188 275.507812 C 304.753906 271.148438 222.992188 210.960938 174.074219 174.914062 C 168.542969 170.890625 163.351562 167.035156 158.828125 163.851562 C 149.78125 157.3125 140.898438 147.753906 131.519531 137.527344 C 117.277344 122.105469 102.535156 106.179688 86.617188 101.316406 C 51.097656 90.585938 27.644531 134.847656 12.0625 164.019531 C 7.371094 172.734375 3.351562 180.28125 0.167969 184.136719 L 1.171875 184.972656 C 4.523438 181.117188 8.542969 173.40625 13.234375 164.6875 C 28.648438 135.851562 51.9375 92.261719 86.449219 102.488281 C 102.03125 107.183594 116.773438 123.109375 130.847656 138.367188 C 140.230469 148.59375 149.109375 158.148438 158.324219 164.6875 C 162.847656 168.042969 168.042969 171.730469 173.570312 175.753906 C 222.492188 211.796875 304.585938 272.152344 350.492188 276.511719 C 351.496094 276.679688 352.5 276.679688 353.507812 276.679688 C 374.785156 276.679688 386.34375 253.710938 398.40625 229.402344 C 409.296875 207.773438 420.523438 185.308594 439.285156 180.28125 C 450.511719 177.261719 463.578125 180.617188 478.992188 190.507812 C 549.023438 235.773438 608.667969 261.757812 666.804688 272.488281 C 687.410156 276.34375 708.019531 278.1875 728.792969 278.1875 C 779.726562 278.355469 831.664062 266.621094 885.609375 243.148438 Z M 377.296875 237.113281 C 385.339844 211.296875 393.714844 184.472656 411.476562 178.4375 C 421.863281 174.914062 434.429688 178.4375 450.175781 189.332031 C 523.390625 240.300781 586.554688 269.804688 648.710938 282.378906 C 724.101562 297.46875 800.835938 288.082031 883.265625 253.207031 C 908.058594 242.8125 928.835938 222.359375 948.941406 202.578125 C 973.566406 178.4375 996.6875 155.636719 1024.332031 153.625 L 1024.164062 152.449219 C 996.1875 154.460938 972.730469 177.429688 948.101562 201.738281 C 927.996094 221.523438 907.222656 241.808594 882.761719 252.203125 C 800.667969 286.90625 724.101562 296.464844 648.878906 281.207031 C 586.886719 268.800781 523.894531 239.292969 450.847656 188.328125 C 434.761719 177.09375 421.863281 173.574219 411.140625 177.261719 C 392.878906 183.464844 384.335938 210.625 376.125 236.777344 C 366.742188 266.789062 357.863281 295.121094 335.582031 295.121094 C 335.246094 295.121094 334.910156 295.121094 334.574219 295.121094 C 314.46875 294.449219 280.628906 276.847656 236.730469 244.324219 C 203.058594 219.34375 167.875 188.832031 147.9375 169.382812 C 143.582031 165.191406 138.722656 159.828125 133.527344 154.125 C 117.78125 137.027344 98.011719 115.566406 80.082031 110.871094 C 45.234375 101.988281 20.941406 154.125 7.707031 182.292969 C 4.523438 189.164062 2.011719 194.53125 0 197.546875 L 1.003906 198.21875 C 3.015625 195.035156 5.527344 189.667969 8.710938 182.796875 C 21.613281 155.132812 45.738281 103.496094 79.75 112.382812 C 97.339844 116.90625 116.941406 138.199219 132.523438 155.300781 C 137.71875 161 142.574219 166.363281 147.097656 170.554688 C 180.273438 202.746094 285.988281 294.785156 334.40625 296.628906 C 334.742188 296.628906 335.078125 296.628906 335.414062 296.628906 C 358.699219 296.464844 368.25 266.285156 377.296875 237.113281 Z M 318.992188 316.246094 C 343.621094 315.574219 350.15625 279.195312 356.355469 244.15625 C 361.714844 214.144531 367.246094 183.128906 384.167969 176.425781 C 393.714844 172.734375 405.945312 176.589844 421.863281 188.328125 C 498.261719 244.992188 564.773438 278.019531 630.953125 292.273438 C 710.363281 309.371094 792.125 299.984375 881.085938 263.433594 C 907.054688 252.707031 928.667969 230.910156 949.441406 209.785156 C 973.902344 184.972656 997.023438 161.503906 1024.5 159.324219 L 1024.5 158.316406 C 996.519531 160.496094 973.234375 184.136719 948.605469 209.117188 C 927.828125 230.074219 906.386719 251.867188 880.585938 262.429688 C 791.957031 298.808594 710.363281 308.199219 631.117188 291.265625 C 565.109375 277.015625 498.761719 243.988281 422.53125 187.488281 C 406.28125 175.417969 393.546875 171.5625 383.664062 175.417969 C 366.074219 182.460938 360.710938 212.300781 355.183594 243.988281 C 348.984375 278.523438 342.617188 314.234375 318.992188 315.074219 C 293.695312 315.910156 247.121094 280.367188 221.652344 259.246094 C 182.617188 226.886719 149.109375 191.847656 137.382812 175.417969 C 126.15625 159.660156 95.832031 125.792969 73.71875 120.929688 C 37.863281 113.21875 12.230469 179.609375 2.679688 204.421875 C 1.675781 207.105469 0.835938 209.453125 0.167969 210.960938 L 1.339844 211.464844 C 2.011719 209.785156 2.847656 207.605469 3.851562 204.925781 C 13.402344 180.28125 38.703125 114.726562 73.382812 122.273438 C 93.320312 126.464844 122.136719 156.304688 136.210938 176.257812 C 161.003906 210.960938 272.921875 316.414062 317.988281 316.414062 C 318.324219 316.246094 318.660156 316.246094 318.992188 316.246094 Z M 318.992188 316.246094 " clip-rule="nonzero"/></clipPath><linearGradient x1="0.5" gradientTransform="matrix(1.675388, 0, 0, 1.676519, -0.837694, -37.83503)" y1="117.318001" x2="611.701775" gradientUnits="userSpaceOnUse" y2="117.318001" id="0f230cf92a"><stop stop-opacity="1" stop-color="rgb(100%, 74.099731%, 34.899902%)" offset="0"/><stop stop-opacity="1" stop-color="rgb(100%, 73.974609%, 34.864807%)" offset="0.0078125"/><stop stop-opacity="1" stop-color="rgb(100%, 73.724365%, 34.796143%)" offset="0.015625"/><stop stop-opacity="1" stop-color="rgb(100%, 73.474121%, 34.727478%)" offset="0.0234375"/><stop stop-opacity="1" stop-color="rgb(100%, 73.223877%, 34.658813%)" offset="0.03125"/><stop stop-opacity="1" stop-color="rgb(100%, 72.973633%, 34.591675%)" offset="0.0390625"/><stop stop-opacity="1" stop-color="rgb(100%, 72.723389%, 34.52301%)" offset="0.046875"/><stop stop-opacity="1" stop-color="rgb(100%, 72.473145%, 34.454346%)" offset="0.0546875"/><stop stop-opacity="1" stop-color="rgb(100%, 72.2229%, 34.385681%)" offset="0.0625"/><stop stop-opacity="1" stop-color="rgb(100%, 71.974182%, 34.318542%)" offset="0.0703125"/><stop stop-opacity="1" stop-color="rgb(100%, 71.723938%, 34.249878%)" offset="0.078125"/><stop stop-opacity="1" stop-color="rgb(100%, 71.473694%, 34.181213%)" offset="0.0859375"/><stop stop-opacity="1" stop-color="rgb(100%, 71.22345%, 34.112549%)" offset="0.09375"/><stop stop-opacity="1" stop-color="rgb(100%, 70.973206%, 34.043884%)" offset="0.101562"/><stop stop-opacity="1" stop-color="rgb(100%, 70.722961%, 33.976746%)" offset="0.109375"/><stop stop-opacity="1" stop-color="rgb(100%, 70.472717%, 33.908081%)" offset="0.117188"/><stop stop-opacity="1" stop-color="rgb(100%, 70.222473%, 33.839417%)" offset="0.125"/><stop stop-opacity="1" stop-color="rgb(100%, 69.972229%, 33.770752%)" offset="0.132812"/><stop stop-opacity="1" stop-color="rgb(100%, 69.721985%, 33.702087%)" offset="0.140625"/><stop stop-opacity="1" stop-color="rgb(100%, 69.473267%, 33.634949%)" offset="0.148438"/><stop stop-opacity="1" stop-color="rgb(100%, 69.223022%, 33.566284%)" offset="0.15625"/><stop stop-opacity="1" stop-color="rgb(100%, 68.972778%, 33.49762%)" offset="0.164062"/><stop stop-opacity="1" stop-color="rgb(100%, 68.722534%, 33.428955%)" offset="0.171875"/><stop stop-opacity="1" stop-color="rgb(100%, 68.47229%, 33.361816%)" offset="0.179687"/><stop stop-opacity="1" stop-color="rgb(100%, 68.222046%, 33.293152%)" offset="0.1875"/><stop stop-opacity="1" stop-color="rgb(100%, 67.971802%, 33.224487%)" offset="0.195312"/><stop stop-opacity="1" stop-color="rgb(100%, 67.721558%, 33.155823%)" offset="0.203125"/><stop stop-opacity="1" stop-color="rgb(100%, 67.471313%, 33.087158%)" offset="0.210937"/><stop stop-opacity="1" stop-color="rgb(100%, 67.222595%, 33.02002%)" offset="0.21875"/><stop stop-opacity="1" stop-color="rgb(100%, 66.972351%, 32.951355%)" offset="0.226562"/><stop stop-opacity="1" stop-color="rgb(100%, 66.722107%, 32.88269%)" offset="0.234375"/><stop stop-opacity="1" stop-color="rgb(100%, 66.471863%, 32.814026%)" offset="0.242187"/><stop stop-opacity="1" stop-color="rgb(100%, 66.221619%, 32.745361%)" offset="0.25"/><stop stop-opacity="1" stop-color="rgb(100%, 65.971375%, 32.678223%)" offset="0.257812"/><stop stop-opacity="1" stop-color="rgb(100%, 65.72113%, 32.609558%)" offset="0.265625"/><stop stop-opacity="1" stop-color="rgb(100%, 65.470886%, 32.540894%)" offset="0.273437"/><stop stop-opacity="1" stop-color="rgb(100%, 65.220642%, 32.472229%)" offset="0.28125"/><stop stop-opacity="1" stop-color="rgb(100%, 64.971924%, 32.40509%)" offset="0.289062"/><stop stop-opacity="1" stop-color="rgb(100%, 64.72168%, 32.336426%)" offset="0.296875"/><stop stop-opacity="1" stop-color="rgb(100%, 64.471436%, 32.267761%)" offset="0.304687"/><stop stop-opacity="1" stop-color="rgb(100%, 64.221191%, 32.199097%)" offset="0.3125"/><stop stop-opacity="1" stop-color="rgb(100%, 63.970947%, 32.130432%)" offset="0.320312"/><stop stop-opacity="1" stop-color="rgb(100%, 63.720703%, 32.063293%)" offset="0.328125"/><stop stop-opacity="1" stop-color="rgb(100%, 63.470459%, 31.994629%)" offset="0.335937"/><stop stop-opacity="1" stop-color="rgb(100%, 63.220215%, 31.925964%)" offset="0.34375"/><stop stop-opacity="1" stop-color="rgb(100%, 62.969971%, 31.8573%)" offset="0.351562"/><stop stop-opacity="1" stop-color="rgb(100%, 62.719727%, 31.788635%)" offset="0.359375"/><stop stop-opacity="1" stop-color="rgb(100%, 62.471008%, 31.721497%)" offset="0.367187"/><stop stop-opacity="1" stop-color="rgb(100%, 62.220764%, 31.652832%)" offset="0.375"/><stop stop-opacity="1" stop-color="rgb(100%, 61.97052%, 31.584167%)" offset="0.382812"/><stop stop-opacity="1" stop-color="rgb(100%, 61.720276%, 31.515503%)" offset="0.390625"/><stop stop-opacity="1" stop-color="rgb(100%, 61.470032%, 31.448364%)" offset="0.398437"/><stop stop-opacity="1" stop-color="rgb(100%, 61.219788%, 31.3797%)" offset="0.40625"/><stop stop-opacity="1" stop-color="rgb(100%, 60.969543%, 31.311035%)" offset="0.414062"/><stop stop-opacity="1" stop-color="rgb(100%, 60.719299%, 31.242371%)" offset="0.421875"/><stop stop-opacity="1" stop-color="rgb(100%, 60.469055%, 31.173706%)" offset="0.429687"/><stop stop-opacity="1" stop-color="rgb(100%, 60.220337%, 31.106567%)" offset="0.4375"/><stop stop-opacity="1" stop-color="rgb(100%, 59.970093%, 31.037903%)" offset="0.445312"/><stop stop-opacity="1" stop-color="rgb(100%, 59.719849%, 30.969238%)" offset="0.453125"/><stop stop-opacity="1" stop-color="rgb(100%, 59.469604%, 30.900574%)" offset="0.460937"/><stop stop-opacity="1" stop-color="rgb(100%, 59.21936%, 30.831909%)" offset="0.46875"/><stop stop-opacity="1" stop-color="rgb(100%, 58.969116%, 30.764771%)" offset="0.476562"/><stop stop-opacity="1" stop-color="rgb(100%, 58.718872%, 30.696106%)" offset="0.484375"/><stop stop-opacity="1" stop-color="rgb(100%, 58.468628%, 30.627441%)" offset="0.492187"/><stop stop-opacity="1" stop-color="rgb(100%, 58.218384%, 30.558777%)" offset="0.5"/><stop stop-opacity="1" stop-color="rgb(100%, 57.96814%, 30.491638%)" offset="0.507812"/><stop stop-opacity="1" stop-color="rgb(100%, 57.719421%, 30.422974%)" offset="0.515625"/><stop stop-opacity="1" stop-color="rgb(100%, 57.469177%, 30.354309%)" offset="0.523437"/><stop stop-opacity="1" stop-color="rgb(100%, 57.218933%, 30.285645%)" offset="0.53125"/><stop stop-opacity="1" stop-color="rgb(99.899292%, 56.962585%, 30.184937%)" offset="0.539062"/><stop stop-opacity="1" stop-color="rgb(99.353027%, 56.677246%, 29.93927%)" offset="0.542969"/><stop stop-opacity="1" stop-color="rgb(98.907471%, 56.523132%, 29.759216%)" offset="0.546875"/><stop stop-opacity="1" stop-color="rgb(98.461914%, 56.369019%, 29.577637%)" offset="0.550781"/><stop stop-opacity="1" stop-color="rgb(98.016357%, 56.214905%, 29.397583%)" offset="0.554687"/><stop stop-opacity="1" stop-color="rgb(97.569275%, 56.060791%, 29.217529%)" offset="0.558594"/><stop stop-opacity="1" stop-color="rgb(97.123718%, 55.908203%, 29.037476%)" offset="0.5625"/><stop stop-opacity="1" stop-color="rgb(96.676636%, 55.754089%, 28.857422%)" offset="0.566406"/><stop stop-opacity="1" stop-color="rgb(96.231079%, 55.599976%, 28.677368%)" offset="0.570312"/><stop stop-opacity="1" stop-color="rgb(95.783997%, 55.445862%, 28.497314%)" offset="0.574219"/><stop stop-opacity="1" stop-color="rgb(95.33844%, 55.291748%, 28.317261%)" offset="0.578125"/><stop stop-opacity="1" stop-color="rgb(94.891357%, 55.137634%, 28.137207%)" offset="0.582031"/><stop stop-opacity="1" stop-color="rgb(94.445801%, 54.985046%, 27.957153%)" offset="0.585937"/><stop stop-opacity="1" stop-color="rgb(93.998718%, 54.830933%, 27.7771%)" offset="0.589844"/><stop stop-opacity="1" stop-color="rgb(93.553162%, 54.676819%, 27.597046%)" offset="0.59375"/><stop stop-opacity="1" stop-color="rgb(93.106079%, 54.522705%, 27.415466%)" offset="0.597656"/><stop stop-opacity="1" stop-color="rgb(92.660522%, 54.368591%, 27.235413%)" offset="0.601562"/><stop stop-opacity="1" stop-color="rgb(92.21344%, 54.214478%, 27.055359%)" offset="0.605469"/><stop stop-opacity="1" stop-color="rgb(91.767883%, 54.06189%, 26.875305%)" offset="0.609375"/><stop stop-opacity="1" stop-color="rgb(91.320801%, 53.907776%, 26.695251%)" offset="0.613281"/><stop stop-opacity="1" stop-color="rgb(90.875244%, 53.753662%, 26.515198%)" offset="0.617187"/><stop stop-opacity="1" stop-color="rgb(90.429688%, 53.599548%, 26.335144%)" offset="0.621094"/><stop stop-opacity="1" stop-color="rgb(89.984131%, 53.445435%, 26.15509%)" offset="0.625"/><stop stop-opacity="1" stop-color="rgb(89.537048%, 53.291321%, 25.975037%)" offset="0.628906"/><stop stop-opacity="1" stop-color="rgb(89.091492%, 53.138733%, 25.794983%)" offset="0.632812"/><stop stop-opacity="1" stop-color="rgb(88.644409%, 52.984619%, 25.613403%)" offset="0.636719"/><stop stop-opacity="1" stop-color="rgb(88.198853%, 52.830505%, 25.43335%)" offset="0.640625"/><stop stop-opacity="1" stop-color="rgb(87.75177%, 52.676392%, 25.253296%)" offset="0.644531"/><stop stop-opacity="1" stop-color="rgb(87.306213%, 52.523804%, 25.073242%)" offset="0.648437"/><stop stop-opacity="1" stop-color="rgb(86.859131%, 52.36969%, 24.893188%)" offset="0.652344"/><stop stop-opacity="1" stop-color="rgb(86.413574%, 52.215576%, 24.713135%)" offset="0.65625"/><stop stop-opacity="1" stop-color="rgb(85.966492%, 52.061462%, 24.533081%)" offset="0.660156"/><stop stop-opacity="1" stop-color="rgb(85.520935%, 51.907349%, 24.353027%)" offset="0.664062"/><stop stop-opacity="1" stop-color="rgb(85.073853%, 51.753235%, 24.172974%)" offset="0.667969"/><stop stop-opacity="1" stop-color="rgb(84.628296%, 51.600647%, 23.99292%)" offset="0.671875"/><stop stop-opacity="1" stop-color="rgb(84.181213%, 51.446533%, 23.81134%)" offset="0.675781"/><stop stop-opacity="1" stop-color="rgb(83.735657%, 51.292419%, 23.631287%)" offset="0.679687"/><stop stop-opacity="1" stop-color="rgb(83.288574%, 51.138306%, 23.451233%)" offset="0.683594"/><stop stop-opacity="1" stop-color="rgb(82.843018%, 50.984192%, 23.271179%)" offset="0.6875"/><stop stop-opacity="1" stop-color="rgb(82.395935%, 50.830078%, 23.091125%)" offset="0.691406"/><stop stop-opacity="1" stop-color="rgb(81.950378%, 50.67749%, 22.911072%)" offset="0.695312"/><stop stop-opacity="1" stop-color="rgb(81.504822%, 50.523376%, 22.731018%)" offset="0.699219"/><stop stop-opacity="1" stop-color="rgb(81.059265%, 50.369263%, 22.550964%)" offset="0.703125"/><stop stop-opacity="1" stop-color="rgb(80.612183%, 50.215149%, 22.370911%)" offset="0.707031"/><stop stop-opacity="1" stop-color="rgb(80.166626%, 50.061035%, 22.190857%)" offset="0.710937"/><stop stop-opacity="1" stop-color="rgb(79.719543%, 49.906921%, 22.010803%)" offset="0.714844"/><stop stop-opacity="1" stop-color="rgb(79.273987%, 49.754333%, 21.83075%)" offset="0.71875"/><stop stop-opacity="1" stop-color="rgb(78.826904%, 49.60022%, 21.64917%)" offset="0.722656"/><stop stop-opacity="1" stop-color="rgb(78.381348%, 49.446106%, 21.469116%)" offset="0.726562"/><stop stop-opacity="1" stop-color="rgb(77.934265%, 49.291992%, 21.289062%)" offset="0.730469"/><stop stop-opacity="1" stop-color="rgb(77.488708%, 49.137878%, 21.109009%)" offset="0.734375"/><stop stop-opacity="1" stop-color="rgb(77.041626%, 48.983765%, 20.928955%)" offset="0.738281"/><stop stop-opacity="1" stop-color="rgb(76.596069%, 48.831177%, 20.748901%)" offset="0.742187"/><stop stop-opacity="1" stop-color="rgb(76.148987%, 48.677063%, 20.568848%)" offset="0.746094"/><stop stop-opacity="1" stop-color="rgb(75.70343%, 48.522949%, 20.388794%)" offset="0.75"/><stop stop-opacity="1" stop-color="rgb(75.256348%, 48.368835%, 20.20874%)" offset="0.753906"/><stop stop-opacity="1" stop-color="rgb(74.810791%, 48.214722%, 20.028687%)" offset="0.757812"/><stop stop-opacity="1" stop-color="rgb(74.363708%, 48.060608%, 19.847107%)" offset="0.761719"/><stop stop-opacity="1" stop-color="rgb(73.918152%, 47.90802%, 19.667053%)" offset="0.765625"/><stop stop-opacity="1" stop-color="rgb(73.471069%, 47.753906%, 19.487%)" offset="0.769531"/><stop stop-opacity="1" stop-color="rgb(73.025513%, 47.599792%, 19.306946%)" offset="0.773437"/><stop stop-opacity="1" stop-color="rgb(72.579956%, 47.445679%, 19.126892%)" offset="0.777344"/><stop stop-opacity="1" stop-color="rgb(72.134399%, 47.291565%, 18.946838%)" offset="0.78125"/><stop stop-opacity="1" stop-color="rgb(71.687317%, 47.137451%, 18.766785%)" offset="0.785156"/><stop stop-opacity="1" stop-color="rgb(71.24176%, 46.984863%, 18.586731%)" offset="0.789062"/><stop stop-opacity="1" stop-color="rgb(70.794678%, 46.83075%, 18.406677%)" offset="0.792969"/><stop stop-opacity="1" stop-color="rgb(70.349121%, 46.676636%, 18.226624%)" offset="0.796875"/><stop stop-opacity="1" stop-color="rgb(69.902039%, 46.522522%, 18.045044%)" offset="0.800781"/><stop stop-opacity="1" stop-color="rgb(69.456482%, 46.369934%, 17.86499%)" offset="0.804687"/><stop stop-opacity="1" stop-color="rgb(69.009399%, 46.21582%, 17.684937%)" offset="0.808594"/><stop stop-opacity="1" stop-color="rgb(68.563843%, 46.061707%, 17.504883%)" offset="0.8125"/><stop stop-opacity="1" stop-color="rgb(68.11676%, 45.907593%, 17.324829%)" offset="0.816406"/><stop stop-opacity="1" stop-color="rgb(67.671204%, 45.753479%, 17.144775%)" offset="0.820312"/><stop stop-opacity="1" stop-color="rgb(67.224121%, 45.599365%, 16.964722%)" offset="0.824219"/><stop stop-opacity="1" stop-color="rgb(66.778564%, 45.446777%, 16.784668%)" offset="0.828125"/><stop stop-opacity="1" stop-color="rgb(66.331482%, 45.292664%, 16.604614%)" offset="0.832031"/><stop stop-opacity="1" stop-color="rgb(65.885925%, 45.13855%, 16.424561%)" offset="0.835937"/><stop stop-opacity="1" stop-color="rgb(65.438843%, 44.984436%, 16.244507%)" offset="0.839844"/><stop stop-opacity="1" stop-color="rgb(64.993286%, 44.830322%, 16.064453%)" offset="0.84375"/><stop stop-opacity="1" stop-color="rgb(64.546204%, 44.676208%, 15.882874%)" offset="0.847656"/><stop stop-opacity="1" stop-color="rgb(64.100647%, 44.523621%, 15.70282%)" offset="0.851562"/><stop stop-opacity="1" stop-color="rgb(63.65509%, 44.369507%, 15.522766%)" offset="0.855469"/><stop stop-opacity="1" stop-color="rgb(63.209534%, 44.215393%, 15.342712%)" offset="0.859375"/><stop stop-opacity="1" stop-color="rgb(62.762451%, 44.061279%, 15.162659%)" offset="0.863281"/><stop stop-opacity="1" stop-color="rgb(62.316895%, 43.907166%, 14.982605%)" offset="0.867187"/><stop stop-opacity="1" stop-color="rgb(61.869812%, 43.753052%, 14.802551%)" offset="0.871094"/><stop stop-opacity="1" stop-color="rgb(61.424255%, 43.600464%, 14.622498%)" offset="0.875"/><stop stop-opacity="1" stop-color="rgb(60.977173%, 43.44635%, 14.442444%)" offset="0.878906"/><stop stop-opacity="1" stop-color="rgb(60.531616%, 43.292236%, 14.26239%)" offset="0.882812"/><stop stop-opacity="1" stop-color="rgb(60.084534%, 43.138123%, 14.080811%)" offset="0.886719"/><stop stop-opacity="1" stop-color="rgb(59.638977%, 42.984009%, 13.900757%)" offset="0.890625"/><stop stop-opacity="1" stop-color="rgb(59.191895%, 42.829895%, 13.720703%)" offset="0.894531"/><stop stop-opacity="1" stop-color="rgb(58.746338%, 42.677307%, 13.540649%)" offset="0.898438"/><stop stop-opacity="1" stop-color="rgb(58.299255%, 42.523193%, 13.360596%)" offset="0.902344"/><stop stop-opacity="1" stop-color="rgb(57.853699%, 42.36908%, 13.180542%)" offset="0.90625"/><stop stop-opacity="1" stop-color="rgb(57.406616%, 42.214966%, 13.000488%)" offset="0.910156"/><stop stop-opacity="1" stop-color="rgb(56.96106%, 42.060852%, 12.820435%)" offset="0.914062"/><stop stop-opacity="1" stop-color="rgb(56.513977%, 41.906738%, 12.640381%)" offset="0.917969"/><stop stop-opacity="1" stop-color="rgb(56.06842%, 41.75415%, 12.460327%)" offset="0.921875"/><stop stop-opacity="1" stop-color="rgb(55.621338%, 41.600037%, 12.278748%)" offset="0.925781"/><stop stop-opacity="1" stop-color="rgb(55.175781%, 41.445923%, 12.098694%)" offset="0.929687"/><stop stop-opacity="1" stop-color="rgb(54.730225%, 41.291809%, 11.91864%)" offset="0.933594"/><stop stop-opacity="1" stop-color="rgb(54.284668%, 41.137695%, 11.738586%)" offset="0.9375"/><stop stop-opacity="1" stop-color="rgb(53.837585%, 40.983582%, 11.558533%)" offset="0.941406"/><stop stop-opacity="1" stop-color="rgb(53.392029%, 40.830994%, 11.378479%)" offset="0.945312"/><stop stop-opacity="1" stop-color="rgb(52.944946%, 40.67688%, 11.198425%)" offset="0.949219"/><stop stop-opacity="1" stop-color="rgb(52.49939%, 40.522766%, 11.018372%)" offset="0.953125"/><stop stop-opacity="1" stop-color="rgb(52.052307%, 40.368652%, 10.838318%)" offset="0.957031"/><stop stop-opacity="1" stop-color="rgb(51.60675%, 40.214539%, 10.658264%)" offset="0.960938"/><stop stop-opacity="1" stop-color="rgb(51.159668%, 40.060425%, 10.47821%)" offset="0.964844"/><stop stop-opacity="1" stop-color="rgb(50.714111%, 39.907837%, 10.298157%)" offset="0.96875"/><stop stop-opacity="1" stop-color="rgb(50.267029%, 39.753723%, 10.116577%)" offset="0.972656"/><stop stop-opacity="1" stop-color="rgb(49.821472%, 39.599609%, 9.936523%)" offset="0.976562"/><stop stop-opacity="1" stop-color="rgb(49.37439%, 39.445496%, 9.75647%)" offset="0.980469"/><stop stop-opacity="1" stop-color="rgb(48.928833%, 39.292908%, 9.576416%)" offset="0.984375"/><stop stop-opacity="1" stop-color="rgb(48.48175%, 39.138794%, 9.396362%)" offset="0.988281"/><stop stop-opacity="1" stop-color="rgb(48.036194%, 38.98468%, 9.216309%)" offset="0.992187"/><stop stop-opacity="1" stop-color="rgb(47.767639%, 38.891602%, 9.107971%)" offset="0.996094"/><stop stop-opacity="1" stop-color="rgb(47.499084%, 38.798523%, 8.999634%)" offset="1"/></linearGradient><clipPath id="99be586502"><rect x="0" width="1024" y="0" height="318"/></clipPath><clipPath id="84d5ba9798"><path d="M 0 231 L 165 231 L 165 575.859375 L 0 575.859375 Z M 0 231 " clip-rule="nonzero"/></clipPath><mask id="36447cdd88"><g filter="url(#9a0ec2421a)"><rect x="-102.45" width="1229.4" fill="#000000" y="-57.6" height="691.2" fill-opacity="0.0784"/></g></mask><clipPath id="9ec4d3d347"><path d="M 3 1.808594 L 117 1.808594 L 117 140 L 3 140 Z M 3 1.808594 " clip-rule="nonzero"/></clipPath><clipPath id="7b1b481b2e"><path d="M 0 96 L 100 96 L 100 249 L 0 249 Z M 0 96 " clip-rule="nonzero"/></clipPath><clipPath id="cfcfe73fd9"><path d="M 0 175 L 164.460938 175 L 164.460938 344.859375 L 0 344.859375 Z M 0 175 " clip-rule="nonzero"/></clipPath><clipPath id="6b08619a1c"><rect x="0" width="165" y="0" height="345"/></clipPath></defs><g mask="url(#ced63c62ea)"><g transform="matrix(1, 0, 0, 1, 0, 245)"><g clip-path="url(#99be586502)"><g clip-path="url(#52fd162005)"><g clip-path="url(#0913cee3f7)"><path fill="url(#0f230cf92a)" d="M 0 0.539062 L 0 316.414062 L 1024 316.414062 L 1024 0.539062 Z M 0 0.539062 " fill-rule="nonzero"/></g></g></g></g></g><g clip-path="url(#84d5ba9798)"><g mask="url(#36447cdd88)"><g transform="matrix(1, 0, 0, 1, 0, 231)"><g clip-path="url(#6b08619a1c)"><g clip-path="url(#9ec4d3d347)"><path fill="#d1d3d4" d="M 116.804688 69.933594 C 116.800781 69.894531 116.789062 69.855469 116.773438 69.816406 C 116.773438 69.816406 116.773438 69.816406 116.773438 69.8125 C 116.761719 69.789062 116.75 69.765625 116.738281 69.746094 L 93.664062 28.6875 C 93.640625 28.644531 93.613281 28.609375 93.585938 28.574219 C 93.585938 28.574219 93.582031 28.574219 93.582031 28.574219 C 93.582031 28.574219 93.582031 28.570312 93.582031 28.570312 C 93.523438 28.511719 93.453125 28.460938 93.371094 28.425781 C 93.371094 28.425781 93.367188 28.425781 93.367188 28.425781 C 93.359375 28.421875 93.351562 28.421875 93.34375 28.417969 L 20.453125 1.851562 C 20.386719 1.824219 20.3125 1.8125 20.238281 1.8125 C 20.203125 1.804688 20.167969 1.8125 20.132812 1.820312 C 20.023438 1.839844 19.925781 1.886719 19.847656 1.953125 C 19.804688 1.988281 19.773438 2.027344 19.742188 2.070312 C 19.675781 2.167969 19.636719 2.285156 19.636719 2.410156 C 19.636719 2.429688 19.636719 2.449219 19.636719 2.46875 C 19.636719 2.46875 19.636719 2.472656 19.636719 2.472656 C 19.636719 2.476562 19.640625 2.480469 19.640625 2.488281 L 23.515625 33.542969 L 5.375 58.292969 C 5.324219 58.359375 5.289062 58.433594 5.269531 58.515625 C 5.269531 58.515625 5.269531 58.519531 5.269531 58.519531 C 5.265625 58.539062 5.261719 58.558594 5.261719 58.574219 C 5.261719 58.574219 5.261719 58.578125 5.261719 58.578125 C 5.261719 58.578125 5.261719 58.578125 5.261719 58.582031 C 5.257812 58.597656 5.257812 58.613281 5.257812 58.632812 L 3.878906 97.554688 C 3.878906 97.597656 3.878906 97.644531 3.890625 97.691406 C 3.890625 97.691406 3.890625 97.691406 3.890625 97.695312 C 3.890625 97.699219 3.890625 97.699219 3.890625 97.699219 C 3.890625 97.703125 3.890625 97.703125 3.894531 97.707031 C 3.894531 97.710938 3.894531 97.710938 3.894531 97.710938 C 3.894531 97.710938 3.894531 97.714844 3.894531 97.714844 C 3.894531 97.714844 3.894531 97.71875 3.894531 97.71875 C 3.894531 97.71875 3.894531 97.71875 3.894531 97.722656 C 3.917969 97.828125 3.976562 97.925781 4.046875 98 L 43.894531 139.398438 C 44.011719 139.519531 44.167969 139.582031 44.328125 139.582031 C 44.335938 139.582031 44.347656 139.582031 44.355469 139.582031 L 109.773438 136.726562 C 109.773438 136.726562 109.777344 136.726562 109.777344 136.726562 C 109.777344 136.726562 109.78125 136.726562 109.78125 136.726562 C 109.785156 136.726562 109.785156 136.726562 109.785156 136.726562 C 109.917969 136.71875 110.035156 136.671875 110.128906 136.59375 C 110.167969 136.5625 110.203125 136.523438 110.230469 136.484375 C 110.292969 136.398438 110.335938 136.292969 110.34375 136.183594 C 110.347656 136.160156 110.347656 136.140625 110.347656 136.121094 L 110.273438 87.210938 L 116.769531 70.261719 C 116.777344 70.246094 116.78125 70.230469 116.789062 70.210938 C 116.789062 70.210938 116.789062 70.210938 116.789062 70.207031 C 116.820312 70.117188 116.824219 70.023438 116.804688 69.933594 C 116.808594 69.933594 116.804688 69.933594 116.804688 69.933594 Z M 37.457031 81.660156 L 57.128906 41.210938 L 67.429688 62.203125 Z M 67.410156 63.652344 L 64.390625 83.742188 L 37.894531 82.808594 Z M 60.457031 97.71875 L 7.195312 97.019531 L 35.9375 84.015625 Z M 38.429688 84.03125 L 64.210938 84.9375 L 62.339844 97.402344 Z M 65.421875 84.980469 L 96.304688 86.066406 L 63.546875 97.453125 Z M 65.601562 83.785156 L 68.652344 63.496094 L 97.613281 84.914062 Z M 68.3125 61.269531 L 57.980469 40.210938 L 91.566406 30.082031 Z M 91.234375 28.925781 L 57.300781 39.15625 L 22.539062 3.890625 Z M 21.054688 4.097656 L 55.351562 38.894531 L 24.683594 33.195312 Z M 24.402344 34.367188 L 54.859375 40.027344 L 7.519531 57.402344 Z M 55.933594 40.917969 L 35.757812 82.394531 L 7.054688 58.855469 Z M 6.417969 59.886719 L 34.835938 83.191406 L 5.117188 96.636719 Z M 44.148438 137.925781 L 5.914062 98.203125 L 61.875 98.941406 Z M 45.285156 138.339844 L 63.03125 99.304688 L 108.132812 135.597656 Z M 64.019531 98.566406 L 99.078125 86.378906 L 108.832031 134.617188 Z M 100.289062 86.304688 L 109.074219 87.621094 L 109.140625 130.070312 Z M 109.285156 86.4375 L 100.851562 85.175781 L 114.722656 72.257812 Z M 99.488281 84.800781 L 70.542969 63.398438 L 114.902344 70.445312 Z M 69.28125 61.980469 L 93.066406 30.082031 L 115.082031 69.257812 Z M 69.28125 61.980469 " fill-opacity="1" fill-rule="nonzero"/></g><g clip-path="url(#7b1b481b2e)"><path fill="#ffffff" d="M 99.816406 133.46875 C 99.800781 133.367188 99.757812 133.269531 99.691406 133.183594 C 99.667969 133.160156 99.648438 133.136719 99.625 133.113281 C 99.625 133.113281 99.625 133.113281 99.621094 133.113281 C 99.5625 133.0625 99.496094 133.023438 99.425781 132.996094 L 4.277344 96.773438 C 4.261719 96.765625 4.246094 96.761719 4.234375 96.757812 C 4.230469 96.757812 4.230469 96.753906 4.230469 96.753906 C 4.140625 96.730469 4.046875 96.722656 3.953125 96.738281 C 3.949219 96.738281 3.949219 96.738281 3.949219 96.738281 C 3.945312 96.738281 3.945312 96.738281 3.945312 96.738281 C 3.941406 96.738281 3.941406 96.738281 3.941406 96.742188 C 3.9375 96.742188 3.9375 96.742188 3.9375 96.742188 C 3.933594 96.742188 3.933594 96.742188 3.929688 96.742188 C 3.925781 96.742188 3.917969 96.746094 3.914062 96.746094 C 3.910156 96.746094 3.910156 96.746094 3.910156 96.746094 C 3.90625 96.746094 3.90625 96.746094 3.90625 96.746094 C 3.902344 96.75 3.902344 96.75 3.902344 96.75 C 3.898438 96.75 3.898438 96.75 3.898438 96.75 C 3.898438 96.75 3.898438 96.75 3.894531 96.75 C 3.882812 96.753906 3.871094 96.757812 3.859375 96.761719 L -54.332031 117.695312 C -54.359375 117.703125 -54.386719 117.714844 -54.414062 117.730469 C -54.414062 117.730469 -54.417969 117.730469 -54.417969 117.730469 C -54.445312 117.746094 -54.476562 117.765625 -54.5 117.785156 C -54.5 117.785156 -54.503906 117.785156 -54.503906 117.785156 C -54.574219 117.839844 -54.632812 117.914062 -54.675781 118 C -54.6875 118.019531 -54.695312 118.039062 -54.703125 118.058594 L -62.835938 140.488281 L -104.976562 188.972656 C -104.992188 188.988281 -105.003906 189.007812 -105.019531 189.027344 C -105.082031 189.117188 -105.117188 189.222656 -105.125 189.328125 C -105.125 189.328125 -105.125 189.328125 -105.125 189.332031 C -105.128906 189.375 -105.125 189.421875 -105.121094 189.464844 C -105.101562 189.582031 -105.046875 189.695312 -104.960938 189.785156 C -104.953125 189.792969 -104.945312 189.800781 -104.9375 189.808594 L -42.488281 248.796875 C -42.378906 248.902344 -42.234375 248.964844 -42.074219 248.964844 C -42.0625 248.964844 -42.050781 248.964844 -42.035156 248.964844 C -42.035156 248.964844 -42.035156 248.964844 -42.03125 248.964844 C -42.027344 248.964844 -42.023438 248.964844 -42.019531 248.964844 L 33.097656 242.101562 C 33.207031 242.089844 33.316406 242.050781 33.410156 241.980469 C 33.414062 241.980469 33.410156 241.980469 33.410156 241.980469 C 33.410156 241.980469 33.414062 241.976562 33.414062 241.976562 C 33.414062 241.976562 33.414062 241.976562 33.417969 241.976562 C 33.453125 241.945312 33.488281 241.910156 33.515625 241.871094 L 65.613281 202.074219 C 65.640625 202.042969 65.660156 202.007812 65.679688 201.96875 C 65.679688 201.96875 65.683594 201.96875 65.683594 201.96875 C 65.683594 201.964844 65.683594 201.964844 65.683594 201.964844 C 65.71875 201.894531 65.738281 201.820312 65.742188 201.742188 L 69.027344 161.539062 L 99.625 134.003906 C 99.734375 133.90625 99.796875 133.777344 99.816406 133.640625 C 99.816406 133.640625 99.816406 133.640625 99.816406 133.636719 C 99.828125 133.585938 99.824219 133.523438 99.816406 133.46875 Z M 96.511719 133.175781 L 30.769531 138.394531 L 5.535156 98.539062 Z M 4.523438 99.195312 L 29.566406 138.746094 L 0.726562 150.972656 Z M -15.6875 175.625 L -49.054688 148.75 L -0.988281 152.4375 Z M -0.152344 153.363281 L 12.941406 198.683594 L -14.742188 176.386719 Z M -16.335938 176.648438 L -25.453125 191.035156 L -48.8125 150.488281 Z M -15.390625 177.40625 L 11.738281 199.257812 L -24.507812 191.789062 Z M 13.628906 200.875 L 31.367188 239.304688 L -23.277344 193.265625 Z M 0.78125 152.257812 L 29.554688 140.054688 L 14.027344 198.101562 Z M 3.390625 98.210938 L -0.472656 150.875 L -52.761719 118.40625 Z M -2.355469 151.125 L -50.394531 147.441406 L -53.40625 119.421875 Z M -54.457031 120.910156 L -51.671875 146.828125 L -61.578125 140.550781 Z M -62.191406 141.585938 L -51.984375 148.050781 L -100.09375 185.191406 Z M -51.117188 148.898438 L -26.539062 191.558594 L -102.839844 188.832031 Z M -42.375 247.257812 L -102.953125 190.03125 L -26.269531 192.761719 Z M -41.246094 247.691406 L -25.160156 193.25 L 31.554688 241.039062 Z M 33.183594 240.375 L 15.003906 200.972656 L 63.914062 202.269531 Z M 14.828125 199.765625 L 30.652344 140.617188 L 64.109375 201.074219 Z M 64.707031 199.667969 L 32.042969 140.648438 L 67.820312 161.582031 Z M 68.375 160.515625 L 32.414062 139.46875 L 97.5 134.300781 Z M 68.375 160.515625 " fill-opacity="1" fill-rule="nonzero"/></g><g clip-path="url(#cfcfe73fd9)"><path fill="#d1d3d4" d="M 163.976562 215.894531 C 163.929688 215.804688 163.867188 215.726562 163.777344 215.667969 C 163.757812 215.65625 163.738281 215.644531 163.71875 215.632812 L 87.78125 175.128906 C 87.75 175.109375 87.71875 175.097656 87.683594 175.085938 C 87.664062 175.078125 87.648438 175.074219 87.628906 175.070312 C 87.5 175.039062 87.359375 175.050781 87.230469 175.113281 C 87.21875 175.117188 87.210938 175.121094 87.203125 175.125 L 11.929688 215.550781 C 11.867188 215.582031 11.808594 215.628906 11.757812 215.6875 C 11.757812 215.6875 11.757812 215.6875 11.753906 215.6875 C 11.753906 215.6875 11.753906 215.6875 11.753906 215.691406 C 11.746094 215.699219 11.742188 215.707031 11.734375 215.714844 C 11.734375 215.714844 11.734375 215.714844 11.734375 215.71875 C 11.734375 215.71875 11.734375 215.71875 11.730469 215.71875 C 11.730469 215.71875 11.730469 215.722656 11.730469 215.722656 C 11.699219 215.765625 11.675781 215.8125 11.65625 215.859375 L -12.894531 275.367188 C -12.90625 275.394531 -12.914062 275.425781 -12.921875 275.453125 C -12.941406 275.523438 -12.945312 275.589844 -12.9375 275.660156 C -12.9375 275.660156 -12.9375 275.660156 -12.9375 275.664062 L -7.976562 323.238281 L -33.582031 368.132812 C -33.585938 368.136719 -33.585938 368.140625 -33.589844 368.144531 C -33.640625 368.238281 -33.664062 368.335938 -33.664062 368.433594 C -33.664062 368.488281 -33.65625 368.546875 -33.640625 368.597656 C -33.640625 368.601562 -33.640625 368.601562 -33.640625 368.601562 C -33.640625 368.605469 -33.640625 368.605469 -33.640625 368.605469 C -33.640625 368.605469 -33.640625 368.605469 -33.640625 368.609375 C -33.632812 368.636719 -33.621094 368.664062 -33.609375 368.691406 C -33.558594 368.792969 -33.484375 368.878906 -33.382812 368.945312 C -33.359375 368.957031 -33.335938 368.972656 -33.316406 368.980469 C -33.230469 369.019531 -33.144531 369.042969 -33.054688 369.035156 L 71.578125 369.285156 C 71.582031 369.285156 71.582031 369.285156 71.585938 369.285156 C 71.601562 369.285156 71.621094 369.28125 71.628906 369.285156 C 71.632812 369.28125 71.632812 369.28125 71.636719 369.285156 C 71.6875 369.277344 71.738281 369.269531 71.785156 369.25 C 71.789062 369.25 71.789062 369.25 71.789062 369.25 C 71.859375 369.226562 71.925781 369.183594 71.984375 369.132812 L 127.078125 319.929688 C 127.101562 319.90625 127.128906 319.878906 127.148438 319.855469 C 127.148438 319.855469 127.148438 319.855469 127.148438 319.851562 C 127.214844 319.765625 127.257812 319.667969 127.273438 319.554688 L 130.953125 290.28125 L 163.984375 216.417969 C 163.992188 216.394531 164 216.371094 164.007812 216.347656 C 164.042969 216.238281 164.046875 216.125 164.019531 216.019531 C 164.011719 215.976562 163.996094 215.933594 163.976562 215.894531 Z M 86.804688 176.703125 L 81.609375 246.304688 L 13.574219 216.03125 Z M 40.371094 254.339844 L 13.988281 217.53125 L 80.128906 246.964844 Z M 81.277344 247.964844 L 74.859375 268.667969 L 42.214844 255.21875 Z M 40.585938 257.339844 L 63.667969 304.296875 L 36.707031 330.851562 Z M 41.347656 256.164062 L 74.5 269.820312 L 64.273438 302.796875 Z M 75.617188 270.28125 L 115.558594 286.734375 L 65.324219 303.480469 Z M 75.976562 269.128906 L 82.40625 248.402344 L 115.09375 285.246094 Z M 12.351562 217.3125 L 39.164062 254.722656 L -11.25 274.523438 Z M 39.453125 255.902344 L 35.503906 330.828125 L -11.339844 275.851562 Z M -11.542969 277.464844 L 34.429688 331.425781 L -6.808594 322.871094 Z M -7.054688 324.046875 L 34.25 332.613281 L -31.523438 366.953125 Z M -30.621094 367.839844 L 35.90625 333.109375 L 70.152344 368.078125 Z M 36.875 332.378906 L 63.941406 305.71875 L 70.792969 367.015625 Z M 72.054688 367.457031 L 65.09375 305.207031 L 125.421875 319.792969 Z M 66.578125 304.328125 L 116.867188 287.566406 L 125.816406 318.652344 Z M 126.449219 316.496094 L 118.140625 287.636719 L 129.707031 290.570312 Z M 130.027344 289.410156 L 118.234375 286.425781 L 159.796875 222.839844 Z M 117.199219 285.804688 L 83.171875 247.453125 L 161.921875 217.390625 Z M 82.816406 246.3125 L 88.019531 176.617188 L 161.992188 216.074219 Z M 82.816406 246.3125 " fill-opacity="1" fill-rule="nonzero"/></g></g></g></g></g></svg>